name Walk2.mot
datacolumns 19
datarows 30
range 1.24500000 1.39000000
endheader

                time	   L_ground_force_vx	   L_ground_force_vy	   L_ground_force_vz	   L_ground_force_px	   L_ground_force_py	   L_ground_force_pz	   R_ground_force_vx	   R_ground_force_vy	   R_ground_force_vz	   R_ground_force_px	   R_ground_force_py	   R_ground_force_pz	   L_ground_torque_x	   L_ground_torque_y	   L_ground_torque_z	   R_ground_torque_x	   R_ground_torque_y	   R_ground_torque_z	
          1.24500000	         -3.57687482	         58.12845304	         -5.27343077	         -0.00091593	          0.00000000	          0.00101480	         -0.00000000	          0.00000000	          0.00000000	          0.00000000	          0.00000000	          0.00000000	          0.00000000	          0.07062970	          0.00000000	          0.00000000	          0.00000000	          0.00000000	
          1.25000000	         -6.63790384	         84.95754087	         -7.00037764	         -0.10374441	          0.00000000	         -0.00865503	         -0.00000000	          0.00000000	          0.00000000	          0.00000000	          0.00000000	          0.00000000	          0.00000000	          0.10020916	          0.00000000	          0.00000000	          0.00000000	          0.00000000	
          1.25500000	        -10.21250048	        114.63064935	         -8.72481237	         -0.19949383	          0.00000000	         -0.01778329	         -0.00000000	          0.00000000	         -0.00000000	          0.00000000	          0.00000000	          0.00000000	          0.00000000	          0.13645448	          0.00000000	          0.00000000	          0.00000000	          0.00000000	
          1.26000000	        -14.23972478	        145.55308688	        -10.26008946	         -0.28299825	          0.00000000	         -0.02593369	         -0.00000000	          0.00000000	         -0.00000000	          0.00000000	          0.00000000	          0.00000000	          0.00000000	          0.17831651	          0.00000000	          0.00000000	          0.00000000	          0.00000000	
          1.26500000	        -18.66498224	        176.03877882	        -11.38254639	         -0.35179640	          0.00000000	         -0.03290951	         -0.00000000	          0.00000000	         -0.00000000	         -0.00000000	          0.00000000	         -0.00000000	          0.00000000	          0.22431030	          0.00000000	          0.00000000	          0.00000000	          0.00000000	
          1.27000000	        -23.43816037	        205.10189107	        -11.88032750	         -0.40546665	          0.00000000	         -0.03868329	         -0.00000000	         -0.00000000	         -0.00000000	         -0.00000000	          0.00000000	         -0.00000000	          0.00000000	          0.27260711	          0.00000000	          0.00000000	          0.00000000	          0.00000000	
          1.27500000	        -28.47867474	        232.45866025	        -11.60934218	         -0.44494040	          0.00000000	         -0.04333045	         -0.00000000	         -0.00000000	         -0.00000000	         -0.00000000	          0.00000000	         -0.00000000	          0.00000000	          0.32043141	          0.00000000	          0.00000000	          0.00000000	          0.00000000	
          1.28000000	        -33.66480736	        258.05631728	        -10.52377968	         -0.47195855	          0.00000000	         -0.04697900	         -0.00000000	         -0.00000001	         -0.00000000	         -0.00000000	          0.00000000	         -0.00000000	          0.00000000	          0.36450292	          0.00000000	          0.00000000	          0.00000000	          0.00000000	
          1.28500000	        -38.84391493	        281.88866506	         -8.68941372	         -0.48864353	          0.00000000	         -0.04977230	         -0.00000000	         -0.00000001	         -0.00000000	         -0.00000000	          0.00000000	         -0.00000000	          0.00000000	          0.40261909	          0.00000000	          0.00000000	          0.00000000	          0.00000000	
          1.29000000	        -43.86621280	        304.07607916	         -6.26822598	         -0.49718404	          0.00000000	         -0.05185492	          0.00000000	         -0.00000002	         -0.00000000	         -0.00000000	          0.00000000	         -0.00000000	          0.00000000	          0.43562486	          0.00000000	          0.00000000	          0.00000000	          0.00000000	
          1.29500000	        -48.62767065	        324.91447931	         -3.45566764	         -0.49963346	          0.00000000	         -0.05336646	          0.00000000	         -0.00000002	         -0.00000000	         -0.00000000	          0.00000000	         -0.00000000	          0.00000000	          0.46755454	          0.00000000	          0.00000000	          0.00000000	          0.00000000	
          1.30000000	        -53.09792735	        344.80531892	         -0.42823206	         -0.49779936	          0.00000000	         -0.05443289	          0.00000000	         -0.00000003	         -0.00000000	         -0.00000000	          0.00000000	         -0.00000000	          0.00000000	          0.50464456	          0.00000000	          0.00000000	          0.00000000	          0.00000000	
          1.30500000	        -57.31300900	        364.15708921	          2.66665181	         -0.49318913	          0.00000000	         -0.05516252	          0.00000000	         -0.00000004	         -0.00000000	         -0.00000000	          0.00000000	         -0.00000000	          0.00000000	          0.55374193	          0.00000000	          0.00000000	         -0.00000000	          0.00000000	
          1.31000000	        -61.33105295	        383.30554138	          5.70775266	         -0.48700092	          0.00000000	         -0.05564218	          0.00000000	         -0.00000005	         -0.00000000	         -0.00000000	          0.00000000	         -0.00000000	          0.00000000	          0.62045690	          0.00000000	          0.00000000	         -0.00000000	          0.00000000	
          1.31500000	        -65.18001037	        402.47835606	          8.59943555	         -0.48014544	          0.00000000	         -0.05593718	          0.00000001	         -0.00000005	         -0.00000000	         -0.00000000	          0.00000000	         -0.00000000	          0.00000000	          0.70752980	          0.00000000	          0.00000000	         -0.00000000	          0.00000000	
          1.32000000	        -68.82800199	        421.80097130	         11.27029711	         -0.47328112	          0.00000000	         -0.05609666	          0.00000001	         -0.00000006	         -0.00000000	         -0.00000000	          0.00000000	         -0.00000000	          0.00000000	          0.81395936	          0.00000000	          0.00000000	         -0.00000000	          0.00000000	
          1.32500000	        -72.19081214	        441.30619515	         13.66942154	         -0.46685480	          0.00000000	         -0.05615876	          0.00000001	         -0.00000005	         -0.00000000	         -0.00000000	          0.00000000	         -0.00000000	          0.00000000	          0.93583291	          0.00000000	          0.00000000	         -0.00000000	          0.00000000	
          1.33000000	        -75.16527480	        460.93837116	         15.76218754	         -0.46114023	          0.00000000	         -0.05615138	          0.00000001	         -0.00000004	          0.00000000	         -0.00000000	          0.00000000	         -0.00000000	          0.00000000	          1.06827741	          0.00000000	          0.00000000	         -0.00000000	          0.00000000	
          1.33500000	        -77.66431175	        480.56273256	         17.52990357	         -0.45627444	          0.00000000	         -0.05609316	          0.00000001	         -0.00000002	          0.00000000	          0.00000000	          0.00000000	          0.00000000	          0.00000000	          1.20664689	          0.00000000	          0.00000000	         -0.00000000	          0.00000000	
          1.34000000	        -79.63658967	        499.98821813	         18.97508561	         -0.45229191	          0.00000000	         -0.05599802	          0.00000001	          0.00000002	          0.00000001	          0.00000000	          0.00000000	          0.00000000	          0.00000000	          1.34661233	          0.00000000	          0.00000000	         -0.00000000	          0.00000000	
          1.34500000	        -81.06834680	        518.99354313	         20.12561360	         -0.44915355	          0.00000000	         -0.05587799	          0.00000001	          0.00000008	          0.00000001	          0.00000000	          0.00000000	          0.00000000	          0.00000000	          1.48413144	          0.00000000	          0.00000000	         -0.00000000	          0.00000000	
          1.35000000	        -81.97428898	        537.34865297	         21.02988926	         -0.44677263	          0.00000000	         -0.05574424	          0.00000001	          0.00000016	          0.00000002	          0.00000000	          0.00000000	          0.00000000	          0.00000000	          1.61526425	          0.00000000	          0.00000000	         -0.00000000	          0.00000000	
          1.35500000	        -82.38567217	        554.83131586	         21.74385215	         -0.44503632	          0.00000000	         -0.05560769	          0.00000000	          0.00000026	          0.00000002	          0.00000000	          0.00000000	          0.00000000	          0.00000000	          1.73608766	          0.00000000	          0.00000000	         -0.00000000	          0.00000000	
          1.36000000	        -82.34052407	        571.24038726	         22.31806013	         -0.44382175	          0.00000000	         -0.05547870	         -0.00000000	          0.00000040	          0.00000003	          0.00000000	          0.00000000	          0.00000000	          0.00000000	          1.84309491	          0.00000000	          0.00000000	         -0.00000000	          0.00000000	
          1.36500000	        -81.87950774	        586.39988128	         22.79161167	         -0.44300732	          0.00000000	         -0.05536611	         -0.00000001	          0.00000055	          0.00000004	          0.00000000	          0.00000000	          0.00000000	          0.00000000	          1.93326912	          0.00000000	          0.00000000	         -0.00000000	          0.00000000	
          1.37000000	        -81.04563425	        600.16102092	         23.19371259	         -0.44247884	          0.00000000	         -0.05527776	         -0.00000003	          0.00000073	          0.00000004	          0.00000000	          0.00000000	          0.00000000	          0.00000000	          2.00419523	          0.00000000	          0.00000000	         -0.00000000	          0.00000000	
          1.37500000	        -79.88550599	        612.40682992	         23.55068103	         -0.44213233	          0.00000000	         -0.05522117	         -0.00000005	          0.00000092	          0.00000004	          0.00000000	          0.00000000	          0.00000000	          0.00000000	          2.05424355	          0.00000000	          0.00000000	          0.00000000	          0.00000000	
          1.38000000	        -78.44895874	        623.05470042	         23.89266769	         -0.44187656	          0.00000000	         -0.05520390	         -0.00000008	          0.00000110	          0.00000005	          0.00000000	          0.00000000	          0.00000000	          0.00000000	          2.08263355	          0.00000000	          0.00000000	          0.00000000	          0.00000000	
          1.38500000	        -76.78585420	        632.06072576	         24.25496684	         -0.44163563	          0.00000000	         -0.05523474	         -0.00000011	          0.00000125	          0.00000004	          0.00000000	          0.00000000	          0.00000000	          0.00000000	          2.08939509	          0.00000000	          0.00000000	          0.00000000	          0.00000000	
          1.39000000	        -74.94290121	        639.42067086	         24.67435422	         -0.44134871	          0.00000000	         -0.05532186	         -0.00000015	          0.00000132	          0.00000003	          0.00000000	          0.00000000	          0.00000000	          0.00000000	          2.07559554	          0.00000000	          0.00000000	          0.00000000	          0.00000000	
